<svg width="24" height="24" viewBox="0 0 24 24" fill="none" xmlns="http://www.w3.org/2000/svg">
<path d="M18.7239 4H5.17447C4.52596 4 4 4.51341 4 5.14617V18.8542C4 19.4866 4.52596 20 5.17447 20H18.7239C19.3734 20 19.8993 19.4863 19.8993 18.8542V5.14617C19.8993 4.51309 19.373 4 18.7239 4ZM8.81917 17.394H6.41779V10.1693H8.81917V17.394ZM7.61864 9.18236H7.60256C6.79706 9.18236 6.27593 8.62745 6.27593 7.93421C6.27593 7.22554 6.81314 6.68607 7.6344 6.68607C8.45599 6.68607 8.96136 7.22554 8.97744 7.93421C8.97744 8.62745 8.45567 9.18236 7.61864 9.18236ZM17.4786 17.394H15.0772V13.528C15.0772 12.5572 14.7298 11.8945 13.861 11.8945C13.1976 11.8945 12.8026 12.3413 12.6286 12.773C12.5652 12.9271 12.5498 13.1426 12.5498 13.3588V17.3937H10.1484C10.1484 17.3937 10.1799 10.8461 10.1484 10.169H12.5498V11.1916C12.8689 10.6994 13.4395 9.99847 14.7144 9.99847C16.2942 9.99847 17.479 11.0314 17.479 13.2507V17.394H17.4786Z" fill="white"/>
</svg>
