<svg width="24" height="24" viewBox="0 0 24 24" fill="none" xmlns="http://www.w3.org/2000/svg">
<path fill-rule="evenodd" clip-rule="evenodd" d="M15.3226 4C16.6774 4 17.871 4.45161 18.7097 5.32258C19.5484 6.16129 20 7.32258 20 8.67742V15.3226C20 16.7097 19.5484 17.9032 18.6774 18.7419C17.8387 19.5484 16.6774 20 15.2903 20H8.70968C7.3871 20 6.22581 19.5806 5.35484 18.7419C4.45161 17.871 4 16.6774 4 15.2903V8.67742C4 5.87097 5.87097 4 8.67742 4H15.3226ZM16.2904 8.67742C16.807 8.67742 17.2259 8.25859 17.2259 7.74194C17.2259 7.22529 16.807 6.80646 16.2904 6.80646C15.7737 6.80646 15.3549 7.22529 15.3549 7.74194C15.3549 8.25859 15.7737 8.67742 16.2904 8.67742ZM12 7.83872C9.74193 7.83872 7.87097 9.67743 7.87097 11.9677C7.87097 14.2581 9.70968 16.0968 12 16.0968C14.2903 16.0968 16.129 14.2258 16.129 11.9677C16.129 9.70968 14.2581 7.83872 12 7.83872ZM12 14.6129C10.5484 14.6129 9.35484 13.4194 9.35484 11.9677C9.35484 10.5161 10.5484 9.32259 12 9.32259C13.4516 9.32259 14.6452 10.5161 14.6452 11.9677C14.6452 13.4194 13.4516 14.6129 12 14.6129Z" fill="white"/>
</svg>
