<svg width="140" height="140" viewBox="0 0 140 140" fill="none" xmlns="http://www.w3.org/2000/svg">
<path d="M20.555 58.7915C20.0917 61.582 19.6799 64.1417 19.203 67.1065C31.9035 67.1065 44.2176 67.1065 56.5316 67.1065C56.5815 67.2989 56.6313 67.4914 56.6812 67.6839C45.7048 75.2268 34.7283 82.7698 23.7874 90.2882C29.8797 106.411 48.5103 121.077 70.7262 120.766C93.0664 120.453 111.404 105.385 117.439 87.8309C101.26 87.8309 85.2052 87.8309 68.4518 87.8309C70.831 85.2519 72.6623 83.1851 74.5823 81.2026C78.7037 76.9472 82.8424 72.7072 87.0487 68.5346C87.7132 67.8755 88.7659 67.2113 89.642 67.2075C106.096 67.1355 122.551 67.1618 139.005 67.1785C139.273 67.1788 139.541 67.3156 139.796 67.3851C142.341 96.4373 121.007 132.738 80.8938 139.116C43.8849 145 9.2475 120.928 1.54176 84.5618C-6.39034 47.1278 17.0627 10.5812 54.002 1.87864C91.171 -6.87803 125.055 16.2787 134.93 44.3536C128.152 44.3536 121.483 44.4711 114.828 44.2254C113.843 44.189 112.75 42.5522 112 41.4587C104.42 30.3998 93.9711 23.4627 80.9074 20.4736C55.4232 14.6425 28.9257 30.1428 21.5832 55.0397C21.2386 56.2079 20.9312 57.3868 20.555 58.7915Z" fill="#FCFCFD"/>
</svg>
