<svg id="yourSvgCode" xmlns="http://www.w3.org/2000/svg" width="24" height="24" viewBox="0 0 20 20" fill="none">
        <path d="M2.93643 8.39878C2.87025 8.79743 2.81142 9.16311 2.74328 9.58664C4.55764 9.58664 6.31679 9.58664 8.07594 9.58664C8.08307 9.61413 8.09019 9.64163 8.09731 9.66913C6.52925 10.7467 4.96118 11.8243 3.3982 12.8983C4.26853 15.2016 6.93004 17.2968 10.1037 17.2523C13.2952 17.2076 15.9149 15.0551 16.7769 12.5473C14.4657 12.5473 12.1722 12.5473 9.77882 12.5473C10.1187 12.1788 10.3803 11.8836 10.6546 11.6004C11.2434 10.9925 11.8346 10.3867 12.4355 9.79066C12.5305 9.6965 12.6808 9.60162 12.806 9.60107C15.1566 9.59078 17.5072 9.59454 19.8579 9.59693C19.8962 9.59697 19.9344 9.61652 19.9708 9.62644C20.3345 13.7768 17.2867 18.9626 11.5563 19.8737C6.26927 20.7143 1.32107 17.2754 0.220252 12.0803C-0.912906 6.73254 2.43753 1.5116 7.71457 0.268377C13.0244 -0.982575 17.865 2.32553 19.2757 6.33623C18.3074 6.33623 17.3547 6.35302 16.4039 6.31791C16.2633 6.31272 16.1071 6.07889 16 5.92268C14.9172 4.34282 13.4244 3.35181 11.5582 2.9248C7.9176 2.09179 4.13225 4.30611 3.08331 7.86282C3.03409 8.0297 2.99018 8.19811 2.93643 8.39878Z" fill="#140C74"/>
      </svg>