<svg width="65" height="65" viewBox="0 0 65 65" fill="none" xmlns="http://www.w3.org/2000/svg">
<rect width="64.6" height="64.6" transform="translate(0.0395508 0.0400391)" fill="white"/>
<path d="M3.26954 18.3428H1.11621V20.4961H3.26954V18.3428Z" fill="black"/>
<path d="M3.26954 22.6504H1.11621V24.8037H3.26954V22.6504Z" fill="black"/>
<path d="M3.26954 29.1104H1.11621V31.2637H3.26954V29.1104Z" fill="black"/>
<path d="M3.26954 35.5693H1.11621V37.7227H3.26954V35.5693Z" fill="black"/>
<path d="M3.26954 37.7236H1.11621V39.877H3.26954V37.7236Z" fill="black"/>
<path d="M3.26954 39.876H1.11621V42.0293H3.26954V39.876Z" fill="black"/>
<path d="M3.26954 44.1836H1.11621V46.3369H3.26954V44.1836Z" fill="black"/>
<path d="M5.42286 20.4961H3.26953V22.6494H5.42286V20.4961Z" fill="black"/>
<path d="M5.42286 33.416H3.26953V35.5693H5.42286V33.416Z" fill="black"/>
<path d="M5.42286 35.5693H3.26953V37.7227H5.42286V35.5693Z" fill="black"/>
<path d="M5.42286 42.0303H3.26953V44.1836H5.42286V42.0303Z" fill="black"/>
<path d="M7.57618 20.4961H5.42285V22.6494H7.57618V20.4961Z" fill="black"/>
<path d="M7.57618 33.416H5.42285V35.5693H7.57618V33.416Z" fill="black"/>
<path d="M7.57618 35.5693H5.42285V37.7227H7.57618V35.5693Z" fill="black"/>
<path d="M7.57618 42.0303H5.42285V44.1836H7.57618V42.0303Z" fill="black"/>
<path d="M7.57618 44.1836H5.42285V46.3369H7.57618V44.1836Z" fill="black"/>
<path d="M9.72999 22.6504H7.57666V24.8037H9.72999V22.6504Z" fill="black"/>
<path d="M9.72999 24.8027H7.57666V26.9561H9.72999V24.8027Z" fill="black"/>
<path d="M9.72999 26.957H7.57666V29.1104H9.72999V26.957Z" fill="black"/>
<path d="M9.72999 33.416H7.57666V35.5693H9.72999V33.416Z" fill="black"/>
<path d="M9.72999 35.5693H7.57666V37.7227H9.72999V35.5693Z" fill="black"/>
<path d="M9.72999 37.7236H7.57666V39.877H9.72999V37.7236Z" fill="black"/>
<path d="M9.72999 42.0303H7.57666V44.1836H9.72999V42.0303Z" fill="black"/>
<path d="M11.8828 18.3428H9.72949V20.4961H11.8828V18.3428Z" fill="black"/>
<path d="M11.8828 20.4961H9.72949V22.6494H11.8828V20.4961Z" fill="black"/>
<path d="M11.8828 22.6504H9.72949V24.8037H11.8828V22.6504Z" fill="black"/>
<path d="M11.8828 29.1104H9.72949V31.2637H11.8828V29.1104Z" fill="black"/>
<path d="M11.8828 31.2627H9.72949V33.416H11.8828V31.2627Z" fill="black"/>
<path d="M11.8828 33.416H9.72949V35.5693H11.8828V33.416Z" fill="black"/>
<path d="M11.8828 35.5693H9.72949V37.7227H11.8828V35.5693Z" fill="black"/>
<path d="M11.8828 42.0303H9.72949V44.1836H11.8828V42.0303Z" fill="black"/>
<path d="M14.0366 18.3428H11.8833V20.4961H14.0366V18.3428Z" fill="black"/>
<path d="M14.0366 20.4961H11.8833V22.6494H14.0366V20.4961Z" fill="black"/>
<path d="M14.0366 22.6504H11.8833V24.8037H14.0366V22.6504Z" fill="black"/>
<path d="M14.0366 26.957H11.8833V29.1104H14.0366V26.957Z" fill="black"/>
<path d="M14.0366 29.1104H11.8833V31.2637H14.0366V29.1104Z" fill="black"/>
<path d="M14.0366 33.416H11.8833V35.5693H14.0366V33.416Z" fill="black"/>
<path d="M14.0366 35.5693H11.8833V37.7227H14.0366V35.5693Z" fill="black"/>
<path d="M14.0366 39.876H11.8833V42.0293H14.0366V39.876Z" fill="black"/>
<path d="M14.0366 44.1836H11.8833V46.3369H14.0366V44.1836Z" fill="black"/>
<path d="M16.1895 18.3428H14.0361V20.4961H16.1895V18.3428Z" fill="black"/>
<path d="M16.1895 22.6504H14.0361V24.8037H16.1895V22.6504Z" fill="black"/>
<path d="M16.1895 26.957H14.0361V29.1104H16.1895V26.957Z" fill="black"/>
<path d="M16.1895 31.2627H14.0361V33.416H16.1895V31.2627Z" fill="black"/>
<path d="M16.1895 35.5693H14.0361V37.7227H16.1895V35.5693Z" fill="black"/>
<path d="M16.1895 39.876H14.0361V42.0293H16.1895V39.876Z" fill="black"/>
<path d="M16.1895 44.1836H14.0361V46.3369H16.1895V44.1836Z" fill="black"/>
<path d="M18.3428 24.8027H16.1895V26.9561H18.3428V24.8027Z" fill="black"/>
<path d="M18.3428 29.1104H16.1895V31.2637H18.3428V29.1104Z" fill="black"/>
<path d="M18.3428 35.5693H16.1895V37.7227H18.3428V35.5693Z" fill="black"/>
<path d="M18.3428 44.1836H16.1895V46.3369H18.3428V44.1836Z" fill="black"/>
<path d="M20.4966 3.27051H18.3433V5.42384H20.4966V3.27051Z" fill="black"/>
<path d="M20.4966 5.42188H18.3433V7.57521H20.4966V5.42188Z" fill="black"/>
<path d="M20.4966 7.57715H18.3433V9.73048H20.4966V7.57715Z" fill="black"/>
<path d="M20.4966 9.72949H18.3433V11.8828H20.4966V9.72949Z" fill="black"/>
<path d="M20.4966 11.8828H18.3433V14.0361H20.4966V11.8828Z" fill="black"/>
<path d="M20.4966 14.0371H18.3433V16.1904H20.4966V14.0371Z" fill="black"/>
<path d="M20.4966 16.1895H18.3433V18.3428H20.4966V16.1895Z" fill="black"/>
<path d="M20.4966 20.4961H18.3433V22.6494H20.4966V20.4961Z" fill="black"/>
<path d="M20.4966 26.957H18.3433V29.1104H20.4966V26.957Z" fill="black"/>
<path d="M20.4966 33.416H18.3433V35.5693H20.4966V33.416Z" fill="black"/>
<path d="M20.4966 35.5693H18.3433V37.7227H20.4966V35.5693Z" fill="black"/>
<path d="M20.4966 39.876H18.3433V42.0293H20.4966V39.876Z" fill="black"/>
<path d="M20.4966 50.6426H18.3433V52.7959H20.4966V50.6426Z" fill="black"/>
<path d="M20.4966 52.7969H18.3433V54.9502H20.4966V52.7969Z" fill="black"/>
<path d="M20.4966 61.4092H18.3433V63.5625H20.4966V61.4092Z" fill="black"/>
<path d="M22.6494 3.27051H20.4961V5.42384H22.6494V3.27051Z" fill="black"/>
<path d="M22.6494 5.42188H20.4961V7.57521H22.6494V5.42188Z" fill="black"/>
<path d="M22.6494 7.57715H20.4961V9.73048H22.6494V7.57715Z" fill="black"/>
<path d="M22.6494 9.72949H20.4961V11.8828H22.6494V9.72949Z" fill="black"/>
<path d="M22.6494 11.8828H20.4961V14.0361H22.6494V11.8828Z" fill="black"/>
<path d="M22.6494 18.3428H20.4961V20.4961H22.6494V18.3428Z" fill="black"/>
<path d="M22.6494 22.6504H20.4961V24.8037H22.6494V22.6504Z" fill="black"/>
<path d="M22.6494 35.5693H20.4961V37.7227H22.6494V35.5693Z" fill="black"/>
<path d="M22.6494 46.3359H20.4961V48.4893H22.6494V46.3359Z" fill="black"/>
<path d="M22.6494 48.4902H20.4961V50.6436H22.6494V48.4902Z" fill="black"/>
<path d="M22.6494 50.6426H20.4961V52.7959H22.6494V50.6426Z" fill="black"/>
<path d="M22.6494 52.7969H20.4961V54.9502H22.6494V52.7969Z" fill="black"/>
<path d="M22.6494 54.9502H20.4961V57.1035H22.6494V54.9502Z" fill="black"/>
<path d="M22.6494 57.1025H20.4961V59.2559H22.6494V57.1025Z" fill="black"/>
<path d="M22.6494 61.4092H20.4961V63.5625H22.6494V61.4092Z" fill="black"/>
<path d="M24.8027 3.27051H22.6494V5.42384H24.8027V3.27051Z" fill="black"/>
<path d="M24.8027 11.8828H22.6494V14.0361H24.8027V11.8828Z" fill="black"/>
<path d="M24.8027 14.0371H22.6494V16.1904H24.8027V14.0371Z" fill="black"/>
<path d="M24.8027 16.1895H22.6494V18.3428H24.8027V16.1895Z" fill="black"/>
<path d="M24.8027 18.3428H22.6494V20.4961H24.8027V18.3428Z" fill="black"/>
<path d="M24.8027 20.4961H22.6494V22.6494H24.8027V20.4961Z" fill="black"/>
<path d="M24.8027 22.6504H22.6494V24.8037H24.8027V22.6504Z" fill="black"/>
<path d="M24.8027 26.957H22.6494V29.1104H24.8027V26.957Z" fill="black"/>
<path d="M24.8027 29.1104H22.6494V31.2637H24.8027V29.1104Z" fill="black"/>
<path d="M24.8027 31.2627H22.6494V33.416H24.8027V31.2627Z" fill="black"/>
<path d="M24.8027 33.416H22.6494V35.5693H24.8027V33.416Z" fill="black"/>
<path d="M24.8027 35.5693H22.6494V37.7227H24.8027V35.5693Z" fill="black"/>
<path d="M24.8027 39.876H22.6494V42.0293H24.8027V39.876Z" fill="black"/>
<path d="M24.8027 46.3359H22.6494V48.4893H24.8027V46.3359Z" fill="black"/>
<path d="M24.8027 48.4902H22.6494V50.6436H24.8027V48.4902Z" fill="black"/>
<path d="M24.8027 54.9502H22.6494V57.1035H24.8027V54.9502Z" fill="black"/>
<path d="M24.8027 57.1025H22.6494V59.2559H24.8027V57.1025Z" fill="black"/>
<path d="M26.9566 1.11621H24.8032V3.26954H26.9566V1.11621Z" fill="black"/>
<path d="M26.9566 3.27051H24.8032V5.42384H26.9566V3.27051Z" fill="black"/>
<path d="M26.9566 5.42188H24.8032V7.57521H26.9566V5.42188Z" fill="black"/>
<path d="M26.9566 7.57715H24.8032V9.73048H26.9566V7.57715Z" fill="black"/>
<path d="M26.9566 16.1895H24.8032V18.3428H26.9566V16.1895Z" fill="black"/>
<path d="M26.9566 18.3428H24.8032V20.4961H26.9566V18.3428Z" fill="black"/>
<path d="M26.9566 20.4961H24.8032V22.6494H26.9566V20.4961Z" fill="black"/>
<path d="M26.9566 22.6504H24.8032V24.8037H26.9566V22.6504Z" fill="black"/>
<path d="M26.9566 29.1104H24.8032V31.2637H26.9566V29.1104Z" fill="black"/>
<path d="M26.9566 35.5693H24.8032V37.7227H26.9566V35.5693Z" fill="black"/>
<path d="M26.9566 42.0303H24.8032V44.1836H26.9566V42.0303Z" fill="black"/>
<path d="M26.9566 46.3359H24.8032V48.4893H26.9566V46.3359Z" fill="black"/>
<path d="M26.9566 48.4902H24.8032V50.6436H26.9566V48.4902Z" fill="black"/>
<path d="M26.9566 50.6426H24.8032V52.7959H26.9566V50.6426Z" fill="black"/>
<path d="M26.9566 54.9502H24.8032V57.1035H26.9566V54.9502Z" fill="black"/>
<path d="M26.9566 59.2568H24.8032V61.4102H26.9566V59.2568Z" fill="black"/>
<path d="M29.1099 3.27051H26.9565V5.42384H29.1099V3.27051Z" fill="black"/>
<path d="M29.1099 5.42188H26.9565V7.57521H29.1099V5.42188Z" fill="black"/>
<path d="M29.1099 7.57715H26.9565V9.73048H29.1099V7.57715Z" fill="black"/>
<path d="M29.1099 9.72949H26.9565V11.8828H29.1099V9.72949Z" fill="black"/>
<path d="M29.1099 14.0371H26.9565V16.1904H29.1099V14.0371Z" fill="black"/>
<path d="M29.1099 20.4961H26.9565V22.6494H29.1099V20.4961Z" fill="black"/>
<path d="M29.1099 33.416H26.9565V35.5693H29.1099V33.416Z" fill="black"/>
<path d="M29.1099 35.5693H26.9565V37.7227H29.1099V35.5693Z" fill="black"/>
<path d="M29.1099 37.7236H26.9565V39.877H29.1099V37.7236Z" fill="black"/>
<path d="M29.1099 42.0303H26.9565V44.1836H29.1099V42.0303Z" fill="black"/>
<path d="M29.1099 46.3359H26.9565V48.4893H29.1099V46.3359Z" fill="black"/>
<path d="M29.1099 50.6426H26.9565V52.7959H29.1099V50.6426Z" fill="black"/>
<path d="M29.1099 59.2568H26.9565V61.4102H29.1099V59.2568Z" fill="black"/>
<path d="M29.1099 61.4092H26.9565V63.5625H29.1099V61.4092Z" fill="black"/>
<path d="M31.2627 1.11621H29.1094V3.26954H31.2627V1.11621Z" fill="black"/>
<path d="M31.2627 5.42188H29.1094V7.57521H31.2627V5.42188Z" fill="black"/>
<path d="M31.2627 7.57715H29.1094V9.73048H31.2627V7.57715Z" fill="black"/>
<path d="M31.2627 9.72949H29.1094V11.8828H31.2627V9.72949Z" fill="black"/>
<path d="M31.2627 11.8828H29.1094V14.0361H31.2627V11.8828Z" fill="black"/>
<path d="M31.2627 31.2627H29.1094V33.416H31.2627V31.2627Z" fill="black"/>
<path d="M31.2627 33.416H29.1094V35.5693H31.2627V33.416Z" fill="black"/>
<path d="M31.2627 35.5693H29.1094V37.7227H31.2627V35.5693Z" fill="black"/>
<path d="M31.2627 37.7236H29.1094V39.877H31.2627V37.7236Z" fill="black"/>
<path d="M31.2627 42.0303H29.1094V44.1836H31.2627V42.0303Z" fill="black"/>
<path d="M31.2627 44.1836H29.1094V46.3369H31.2627V44.1836Z" fill="black"/>
<path d="M31.2627 46.3359H29.1094V48.4893H31.2627V46.3359Z" fill="black"/>
<path d="M31.2627 48.4902H29.1094V50.6436H31.2627V48.4902Z" fill="black"/>
<path d="M31.2627 52.7969H29.1094V54.9502H31.2627V52.7969Z" fill="black"/>
<path d="M31.2627 54.9502H29.1094V57.1035H31.2627V54.9502Z" fill="black"/>
<path d="M31.2627 59.2568H29.1094V61.4102H31.2627V59.2568Z" fill="black"/>
<path d="M31.2627 61.4092H29.1094V63.5625H31.2627V61.4092Z" fill="black"/>
<path d="M33.416 5.42188H31.2627V7.57521H33.416V5.42188Z" fill="black"/>
<path d="M33.416 11.8828H31.2627V14.0361H33.416V11.8828Z" fill="black"/>
<path d="M33.416 14.0371H31.2627V16.1904H33.416V14.0371Z" fill="black"/>
<path d="M33.416 16.1895H31.2627V18.3428H33.416V16.1895Z" fill="black"/>
<path d="M33.416 18.3428H31.2627V20.4961H33.416V18.3428Z" fill="black"/>
<path d="M33.416 24.8027H31.2627V26.9561H33.416V24.8027Z" fill="black"/>
<path d="M33.416 26.957H31.2627V29.1104H33.416V26.957Z" fill="black"/>
<path d="M33.416 33.416H31.2627V35.5693H33.416V33.416Z" fill="black"/>
<path d="M33.416 37.7236H31.2627V39.877H33.416V37.7236Z" fill="black"/>
<path d="M33.416 44.1836H31.2627V46.3369H33.416V44.1836Z" fill="black"/>
<path d="M33.416 50.6426H31.2627V52.7959H33.416V50.6426Z" fill="black"/>
<path d="M33.416 59.2568H31.2627V61.4102H33.416V59.2568Z" fill="black"/>
<path d="M35.5698 1.11621H33.4165V3.26954H35.5698V1.11621Z" fill="black"/>
<path d="M35.5698 3.27051H33.4165V5.42384H35.5698V3.27051Z" fill="black"/>
<path d="M35.5698 9.72949H33.4165V11.8828H35.5698V9.72949Z" fill="black"/>
<path d="M35.5698 11.8828H33.4165V14.0361H35.5698V11.8828Z" fill="black"/>
<path d="M35.5698 16.1895H33.4165V18.3428H35.5698V16.1895Z" fill="black"/>
<path d="M35.5698 18.3428H33.4165V20.4961H35.5698V18.3428Z" fill="black"/>
<path d="M35.5698 20.4961H33.4165V22.6494H35.5698V20.4961Z" fill="black"/>
<path d="M35.5698 26.957H33.4165V29.1104H35.5698V26.957Z" fill="black"/>
<path d="M35.5698 31.2627H33.4165V33.416H35.5698V31.2627Z" fill="black"/>
<path d="M35.5698 37.7236H33.4165V39.877H35.5698V37.7236Z" fill="black"/>
<path d="M35.5698 39.876H33.4165V42.0293H35.5698V39.876Z" fill="black"/>
<path d="M35.5698 44.1836H33.4165V46.3369H35.5698V44.1836Z" fill="black"/>
<path d="M35.5698 48.4902H33.4165V50.6436H35.5698V48.4902Z" fill="black"/>
<path d="M35.5698 52.7969H33.4165V54.9502H35.5698V52.7969Z" fill="black"/>
<path d="M35.5698 54.9502H33.4165V57.1035H35.5698V54.9502Z" fill="black"/>
<path d="M37.7227 3.27051H35.5693V5.42384H37.7227V3.27051Z" fill="black"/>
<path d="M37.7227 7.57715H35.5693V9.73048H37.7227V7.57715Z" fill="black"/>
<path d="M37.7227 14.0371H35.5693V16.1904H37.7227V14.0371Z" fill="black"/>
<path d="M37.7227 16.1895H35.5693V18.3428H37.7227V16.1895Z" fill="black"/>
<path d="M37.7227 22.6504H35.5693V24.8037H37.7227V22.6504Z" fill="black"/>
<path d="M37.7227 24.8027H35.5693V26.9561H37.7227V24.8027Z" fill="black"/>
<path d="M37.7227 29.1104H35.5693V31.2637H37.7227V29.1104Z" fill="black"/>
<path d="M37.7227 31.2627H35.5693V33.416H37.7227V31.2627Z" fill="black"/>
<path d="M37.7227 35.5693H35.5693V37.7227H37.7227V35.5693Z" fill="black"/>
<path d="M37.7227 42.0303H35.5693V44.1836H37.7227V42.0303Z" fill="black"/>
<path d="M37.7227 44.1836H35.5693V46.3369H37.7227V44.1836Z" fill="black"/>
<path d="M37.7227 54.9502H35.5693V57.1035H37.7227V54.9502Z" fill="black"/>
<path d="M37.7227 57.1025H35.5693V59.2559H37.7227V57.1025Z" fill="black"/>
<path d="M37.7227 61.4092H35.5693V63.5625H37.7227V61.4092Z" fill="black"/>
<path d="M39.8765 1.11621H37.7231V3.26954H39.8765V1.11621Z" fill="black"/>
<path d="M39.8765 3.27051H37.7231V5.42384H39.8765V3.27051Z" fill="black"/>
<path d="M39.8765 9.72949H37.7231V11.8828H39.8765V9.72949Z" fill="black"/>
<path d="M39.8765 11.8828H37.7231V14.0361H39.8765V11.8828Z" fill="black"/>
<path d="M39.8765 16.1895H37.7231V18.3428H39.8765V16.1895Z" fill="black"/>
<path d="M39.8765 20.4961H37.7231V22.6494H39.8765V20.4961Z" fill="black"/>
<path d="M39.8765 22.6504H37.7231V24.8037H39.8765V22.6504Z" fill="black"/>
<path d="M39.8765 24.8027H37.7231V26.9561H39.8765V24.8027Z" fill="black"/>
<path d="M39.8765 26.957H37.7231V29.1104H39.8765V26.957Z" fill="black"/>
<path d="M39.8765 31.2627H37.7231V33.416H39.8765V31.2627Z" fill="black"/>
<path d="M39.8765 33.416H37.7231V35.5693H39.8765V33.416Z" fill="black"/>
<path d="M39.8765 39.876H37.7231V42.0293H39.8765V39.876Z" fill="black"/>
<path d="M39.8765 42.0303H37.7231V44.1836H39.8765V42.0303Z" fill="black"/>
<path d="M39.8765 44.1836H37.7231V46.3369H39.8765V44.1836Z" fill="black"/>
<path d="M39.8765 50.6426H37.7231V52.7959H39.8765V50.6426Z" fill="black"/>
<path d="M39.8765 52.7969H37.7231V54.9502H39.8765V52.7969Z" fill="black"/>
<path d="M39.8765 57.1025H37.7231V59.2559H39.8765V57.1025Z" fill="black"/>
<path d="M39.8765 59.2568H37.7231V61.4102H39.8765V59.2568Z" fill="black"/>
<path d="M39.8765 61.4092H37.7231V63.5625H39.8765V61.4092Z" fill="black"/>
<path d="M42.0298 1.11621H39.8765V3.26954H42.0298V1.11621Z" fill="black"/>
<path d="M42.0298 5.42188H39.8765V7.57521H42.0298V5.42188Z" fill="black"/>
<path d="M42.0298 7.57715H39.8765V9.73048H42.0298V7.57715Z" fill="black"/>
<path d="M42.0298 14.0371H39.8765V16.1904H42.0298V14.0371Z" fill="black"/>
<path d="M42.0298 18.3428H39.8765V20.4961H42.0298V18.3428Z" fill="black"/>
<path d="M42.0298 22.6504H39.8765V24.8037H42.0298V22.6504Z" fill="black"/>
<path d="M42.0298 29.1104H39.8765V31.2637H42.0298V29.1104Z" fill="black"/>
<path d="M42.0298 33.416H39.8765V35.5693H42.0298V33.416Z" fill="black"/>
<path d="M42.0298 35.5693H39.8765V37.7227H42.0298V35.5693Z" fill="black"/>
<path d="M42.0298 37.7236H39.8765V39.877H42.0298V37.7236Z" fill="black"/>
<path d="M42.0298 39.876H39.8765V42.0293H42.0298V39.876Z" fill="black"/>
<path d="M42.0298 48.4902H39.8765V50.6436H42.0298V48.4902Z" fill="black"/>
<path d="M42.0298 50.6426H39.8765V52.7959H42.0298V50.6426Z" fill="black"/>
<path d="M42.0298 57.1025H39.8765V59.2559H42.0298V57.1025Z" fill="black"/>
<path d="M44.1831 1.11621H42.0298V3.26954H44.1831V1.11621Z" fill="black"/>
<path d="M44.1831 5.42188H42.0298V7.57521H44.1831V5.42188Z" fill="black"/>
<path d="M44.1831 11.8828H42.0298V14.0361H44.1831V11.8828Z" fill="black"/>
<path d="M44.1831 22.6504H42.0298V24.8037H44.1831V22.6504Z" fill="black"/>
<path d="M44.1831 29.1104H42.0298V31.2637H44.1831V29.1104Z" fill="black"/>
<path d="M44.1831 33.416H42.0298V35.5693H44.1831V33.416Z" fill="black"/>
<path d="M44.1831 39.876H42.0298V42.0293H44.1831V39.876Z" fill="black"/>
<path d="M44.1831 42.0303H42.0298V44.1836H44.1831V42.0303Z" fill="black"/>
<path d="M44.1831 44.1836H42.0298V46.3369H44.1831V44.1836Z" fill="black"/>
<path d="M44.1831 48.4902H42.0298V50.6436H44.1831V48.4902Z" fill="black"/>
<path d="M44.1831 52.7969H42.0298V54.9502H44.1831V52.7969Z" fill="black"/>
<path d="M44.1831 54.9502H42.0298V57.1035H44.1831V54.9502Z" fill="black"/>
<path d="M44.1831 59.2568H42.0298V61.4102H44.1831V59.2568Z" fill="black"/>
<path d="M44.1831 61.4092H42.0298V63.5625H44.1831V61.4092Z" fill="black"/>
<path d="M46.3364 1.11621H44.1831V3.26954H46.3364V1.11621Z" fill="black"/>
<path d="M46.3364 5.42188H44.1831V7.57521H46.3364V5.42188Z" fill="black"/>
<path d="M46.3364 7.57715H44.1831V9.73048H46.3364V7.57715Z" fill="black"/>
<path d="M46.3364 9.72949H44.1831V11.8828H46.3364V9.72949Z" fill="black"/>
<path d="M46.3364 11.8828H44.1831V14.0361H46.3364V11.8828Z" fill="black"/>
<path d="M46.3364 14.0371H44.1831V16.1904H46.3364V14.0371Z" fill="black"/>
<path d="M46.3364 18.3428H44.1831V20.4961H46.3364V18.3428Z" fill="black"/>
<path d="M46.3364 20.4961H44.1831V22.6494H46.3364V20.4961Z" fill="black"/>
<path d="M46.3364 22.6504H44.1831V24.8037H46.3364V22.6504Z" fill="black"/>
<path d="M46.3364 24.8027H44.1831V26.9561H46.3364V24.8027Z" fill="black"/>
<path d="M46.3364 26.957H44.1831V29.1104H46.3364V26.957Z" fill="black"/>
<path d="M46.3364 31.2627H44.1831V33.416H46.3364V31.2627Z" fill="black"/>
<path d="M46.3364 33.416H44.1831V35.5693H46.3364V33.416Z" fill="black"/>
<path d="M46.3364 37.7236H44.1831V39.877H46.3364V37.7236Z" fill="black"/>
<path d="M46.3364 39.876H44.1831V42.0293H46.3364V39.876Z" fill="black"/>
<path d="M46.3364 44.1836H44.1831V46.3369H46.3364V44.1836Z" fill="black"/>
<path d="M46.3364 46.3359H44.1831V48.4893H46.3364V46.3359Z" fill="black"/>
<path d="M46.3364 48.4902H44.1831V50.6436H46.3364V48.4902Z" fill="black"/>
<path d="M46.3364 50.6426H44.1831V52.7959H46.3364V50.6426Z" fill="black"/>
<path d="M46.3364 52.7969H44.1831V54.9502H46.3364V52.7969Z" fill="black"/>
<path d="M46.3364 57.1025H44.1831V59.2559H46.3364V57.1025Z" fill="black"/>
<path d="M46.3364 59.2568H44.1831V61.4102H46.3364V59.2568Z" fill="black"/>
<path d="M46.3364 61.4092H44.1831V63.5625H46.3364V61.4092Z" fill="black"/>
<path d="M48.4893 18.3428H46.3359V20.4961H48.4893V18.3428Z" fill="black"/>
<path d="M48.4893 22.6504H46.3359V24.8037H48.4893V22.6504Z" fill="black"/>
<path d="M48.4893 26.957H46.3359V29.1104H48.4893V26.957Z" fill="black"/>
<path d="M48.4893 35.5693H46.3359V37.7227H48.4893V35.5693Z" fill="black"/>
<path d="M48.4893 39.876H46.3359V42.0293H48.4893V39.876Z" fill="black"/>
<path d="M48.4893 44.1836H46.3359V46.3369H48.4893V44.1836Z" fill="black"/>
<path d="M48.4893 52.7969H46.3359V54.9502H48.4893V52.7969Z" fill="black"/>
<path d="M48.4893 54.9502H46.3359V57.1035H48.4893V54.9502Z" fill="black"/>
<path d="M48.4893 59.2568H46.3359V61.4102H48.4893V59.2568Z" fill="black"/>
<path d="M48.4893 61.4092H46.3359V63.5625H48.4893V61.4092Z" fill="black"/>
<path d="M50.6426 18.3428H48.4893V20.4961H50.6426V18.3428Z" fill="black"/>
<path d="M50.6426 20.4961H48.4893V22.6494H50.6426V20.4961Z" fill="black"/>
<path d="M50.6426 22.6504H48.4893V24.8037H50.6426V22.6504Z" fill="black"/>
<path d="M50.6426 29.1104H48.4893V31.2637H50.6426V29.1104Z" fill="black"/>
<path d="M50.6426 33.416H48.4893V35.5693H50.6426V33.416Z" fill="black"/>
<path d="M50.6426 35.5693H48.4893V37.7227H50.6426V35.5693Z" fill="black"/>
<path d="M50.6426 39.876H48.4893V42.0293H50.6426V39.876Z" fill="black"/>
<path d="M50.6426 42.0303H48.4893V44.1836H50.6426V42.0303Z" fill="black"/>
<path d="M50.6426 44.1836H48.4893V46.3369H50.6426V44.1836Z" fill="black"/>
<path d="M50.6426 48.4902H48.4893V50.6436H50.6426V48.4902Z" fill="black"/>
<path d="M50.6426 52.7969H48.4893V54.9502H50.6426V52.7969Z" fill="black"/>
<path d="M52.7964 18.3428H50.6431V20.4961H52.7964V18.3428Z" fill="black"/>
<path d="M52.7964 22.6504H50.6431V24.8037H52.7964V22.6504Z" fill="black"/>
<path d="M52.7964 42.0303H50.6431V44.1836H52.7964V42.0303Z" fill="black"/>
<path d="M52.7964 44.1836H50.6431V46.3369H52.7964V44.1836Z" fill="black"/>
<path d="M52.7964 52.7969H50.6431V54.9502H52.7964V52.7969Z" fill="black"/>
<path d="M52.7964 54.9502H50.6431V57.1035H52.7964V54.9502Z" fill="black"/>
<path d="M52.7964 61.4092H50.6431V63.5625H52.7964V61.4092Z" fill="black"/>
<path d="M54.9497 18.3428H52.7964V20.4961H54.9497V18.3428Z" fill="black"/>
<path d="M54.9497 24.8027H52.7964V26.9561H54.9497V24.8027Z" fill="black"/>
<path d="M54.9497 26.957H52.7964V29.1104H54.9497V26.957Z" fill="black"/>
<path d="M54.9497 29.1104H52.7964V31.2637H54.9497V29.1104Z" fill="black"/>
<path d="M54.9497 33.416H52.7964V35.5693H54.9497V33.416Z" fill="black"/>
<path d="M54.9497 39.876H52.7964V42.0293H54.9497V39.876Z" fill="black"/>
<path d="M54.9497 44.1836H52.7964V46.3369H54.9497V44.1836Z" fill="black"/>
<path d="M54.9497 46.3359H52.7964V48.4893H54.9497V46.3359Z" fill="black"/>
<path d="M54.9497 48.4902H52.7964V50.6436H54.9497V48.4902Z" fill="black"/>
<path d="M54.9497 50.6426H52.7964V52.7959H54.9497V50.6426Z" fill="black"/>
<path d="M54.9497 52.7969H52.7964V54.9502H54.9497V52.7969Z" fill="black"/>
<path d="M54.9497 54.9502H52.7964V57.1035H54.9497V54.9502Z" fill="black"/>
<path d="M54.9497 57.1025H52.7964V59.2559H54.9497V57.1025Z" fill="black"/>
<path d="M54.9497 61.4092H52.7964V63.5625H54.9497V61.4092Z" fill="black"/>
<path d="M57.103 18.3428H54.9497V20.4961H57.103V18.3428Z" fill="black"/>
<path d="M57.103 20.4961H54.9497V22.6494H57.103V20.4961Z" fill="black"/>
<path d="M57.103 22.6504H54.9497V24.8037H57.103V22.6504Z" fill="black"/>
<path d="M57.103 33.416H54.9497V35.5693H57.103V33.416Z" fill="black"/>
<path d="M57.103 35.5693H54.9497V37.7227H57.103V35.5693Z" fill="black"/>
<path d="M57.103 37.7236H54.9497V39.877H57.103V37.7236Z" fill="black"/>
<path d="M57.103 42.0303H54.9497V44.1836H57.103V42.0303Z" fill="black"/>
<path d="M57.103 44.1836H54.9497V46.3369H57.103V44.1836Z" fill="black"/>
<path d="M57.103 46.3359H54.9497V48.4893H57.103V46.3359Z" fill="black"/>
<path d="M57.103 50.6426H54.9497V52.7959H57.103V50.6426Z" fill="black"/>
<path d="M57.103 54.9502H54.9497V57.1035H57.103V54.9502Z" fill="black"/>
<path d="M57.103 57.1025H54.9497V59.2559H57.103V57.1025Z" fill="black"/>
<path d="M59.2564 18.3428H57.103V20.4961H59.2564V18.3428Z" fill="black"/>
<path d="M59.2564 24.8027H57.103V26.9561H59.2564V24.8027Z" fill="black"/>
<path d="M59.2564 29.1104H57.103V31.2637H59.2564V29.1104Z" fill="black"/>
<path d="M59.2564 31.2627H57.103V33.416H59.2564V31.2627Z" fill="black"/>
<path d="M59.2564 37.7236H57.103V39.877H59.2564V37.7236Z" fill="black"/>
<path d="M59.2564 42.0303H57.103V44.1836H59.2564V42.0303Z" fill="black"/>
<path d="M59.2564 44.1836H57.103V46.3369H59.2564V44.1836Z" fill="black"/>
<path d="M59.2564 46.3359H57.103V48.4893H59.2564V46.3359Z" fill="black"/>
<path d="M59.2564 48.4902H57.103V50.6436H59.2564V48.4902Z" fill="black"/>
<path d="M59.2564 50.6426H57.103V52.7959H59.2564V50.6426Z" fill="black"/>
<path d="M59.2564 52.7969H57.103V54.9502H59.2564V52.7969Z" fill="black"/>
<path d="M59.2564 57.1025H57.103V59.2559H59.2564V57.1025Z" fill="black"/>
<path d="M59.2564 59.2568H57.103V61.4102H59.2564V59.2568Z" fill="black"/>
<path d="M61.4097 18.3428H59.2563V20.4961H61.4097V18.3428Z" fill="black"/>
<path d="M61.4097 20.4961H59.2563V22.6494H61.4097V20.4961Z" fill="black"/>
<path d="M61.4097 22.6504H59.2563V24.8037H61.4097V22.6504Z" fill="black"/>
<path d="M61.4097 26.957H59.2563V29.1104H61.4097V26.957Z" fill="black"/>
<path d="M61.4097 31.2627H59.2563V33.416H61.4097V31.2627Z" fill="black"/>
<path d="M61.4097 35.5693H59.2563V37.7227H61.4097V35.5693Z" fill="black"/>
<path d="M61.4097 39.876H59.2563V42.0293H61.4097V39.876Z" fill="black"/>
<path d="M61.4097 42.0303H59.2563V44.1836H61.4097V42.0303Z" fill="black"/>
<path d="M61.4097 44.1836H59.2563V46.3369H61.4097V44.1836Z" fill="black"/>
<path d="M61.4097 46.3359H59.2563V48.4893H61.4097V46.3359Z" fill="black"/>
<path d="M61.4097 52.7969H59.2563V54.9502H61.4097V52.7969Z" fill="black"/>
<path d="M61.4097 54.9502H59.2563V57.1035H61.4097V54.9502Z" fill="black"/>
<path d="M61.4097 59.2568H59.2563V61.4102H61.4097V59.2568Z" fill="black"/>
<path d="M63.563 22.6504H61.4097V24.8037H63.563V22.6504Z" fill="black"/>
<path d="M63.563 31.2627H61.4097V33.416H63.563V31.2627Z" fill="black"/>
<path d="M63.563 37.7236H61.4097V39.877H63.563V37.7236Z" fill="black"/>
<path d="M63.563 42.0303H61.4097V44.1836H63.563V42.0303Z" fill="black"/>
<path d="M63.563 46.3359H61.4097V48.4893H63.563V46.3359Z" fill="black"/>
<path d="M63.563 52.7969H61.4097V54.9502H63.563V52.7969Z" fill="black"/>
<path d="M63.563 54.9502H61.4097V57.1035H63.563V54.9502Z" fill="black"/>
<path d="M63.563 57.1025H61.4097V59.2559H63.563V57.1025Z" fill="black"/>
<path d="M3.26954 1.11621H1.11621V3.26954H3.26954V1.11621Z" fill="black"/>
<path d="M3.26954 3.27051H1.11621V5.42384H3.26954V3.27051Z" fill="black"/>
<path d="M3.26954 5.42188H1.11621V7.57521H3.26954V5.42188Z" fill="black"/>
<path d="M3.26954 7.57715H1.11621V9.73048H3.26954V7.57715Z" fill="black"/>
<path d="M3.26954 9.72949H1.11621V11.8828H3.26954V9.72949Z" fill="black"/>
<path d="M3.26954 11.8828H1.11621V14.0361H3.26954V11.8828Z" fill="black"/>
<path d="M3.26954 14.0371H1.11621V16.1904H3.26954V14.0371Z" fill="black"/>
<path d="M5.42286 1.11621H3.26953V3.26954H5.42286V1.11621Z" fill="black"/>
<path d="M5.42286 14.0371H3.26953V16.1904H5.42286V14.0371Z" fill="black"/>
<path d="M7.57618 1.11621H5.42285V3.26954H7.57618V1.11621Z" fill="black"/>
<path d="M7.57618 14.0371H5.42285V16.1904H7.57618V14.0371Z" fill="black"/>
<path d="M9.72999 1.11621H7.57666V3.26954H9.72999V1.11621Z" fill="black"/>
<path d="M9.72999 14.0371H7.57666V16.1904H9.72999V14.0371Z" fill="black"/>
<path d="M11.8828 1.11621H9.72949V3.26954H11.8828V1.11621Z" fill="black"/>
<path d="M11.8828 14.0371H9.72949V16.1904H11.8828V14.0371Z" fill="black"/>
<path d="M14.0366 1.11621H11.8833V3.26954H14.0366V1.11621Z" fill="black"/>
<path d="M14.0366 14.0371H11.8833V16.1904H14.0366V14.0371Z" fill="black"/>
<path d="M16.1895 1.11621H14.0361V3.26954H16.1895V1.11621Z" fill="black"/>
<path d="M16.1895 3.27051H14.0361V5.42384H16.1895V3.27051Z" fill="black"/>
<path d="M16.1895 5.42188H14.0361V7.57521H16.1895V5.42188Z" fill="black"/>
<path d="M16.1895 7.57715H14.0361V9.73048H16.1895V7.57715Z" fill="black"/>
<path d="M16.1895 9.72949H14.0361V11.8828H16.1895V9.72949Z" fill="black"/>
<path d="M16.1895 11.8828H14.0361V14.0361H16.1895V11.8828Z" fill="black"/>
<path d="M16.1895 14.0371H14.0361V16.1904H16.1895V14.0371Z" fill="black"/>
<path d="M7.5757 5.42383H5.42236V7.57716H7.5757V5.42383Z" fill="black"/>
<path d="M7.5757 7.57812H5.42236V9.73146H7.5757V7.57812Z" fill="black"/>
<path d="M7.5757 9.72949H5.42236V11.8828H7.5757V9.72949Z" fill="black"/>
<path d="M9.72951 5.42383H7.57617V7.57716H9.72951V5.42383Z" fill="black"/>
<path d="M9.72951 7.57812H7.57617V9.73146H9.72951V7.57812Z" fill="black"/>
<path d="M9.72951 9.72949H7.57617V11.8828H9.72951V9.72949Z" fill="black"/>
<path d="M11.8833 5.42383H9.72998V7.57716H11.8833V5.42383Z" fill="black"/>
<path d="M11.8833 7.57812H9.72998V9.73146H11.8833V7.57812Z" fill="black"/>
<path d="M11.8833 9.72949H9.72998V11.8828H11.8833V9.72949Z" fill="black"/>
<path d="M50.6426 1.11621H48.4893V3.26954H50.6426V1.11621Z" fill="black"/>
<path d="M50.6426 3.27051H48.4893V5.42384H50.6426V3.27051Z" fill="black"/>
<path d="M50.6426 5.42188H48.4893V7.57521H50.6426V5.42188Z" fill="black"/>
<path d="M50.6426 7.57715H48.4893V9.73048H50.6426V7.57715Z" fill="black"/>
<path d="M50.6426 9.72949H48.4893V11.8828H50.6426V9.72949Z" fill="black"/>
<path d="M50.6426 11.8828H48.4893V14.0361H50.6426V11.8828Z" fill="black"/>
<path d="M50.6426 14.0371H48.4893V16.1904H50.6426V14.0371Z" fill="black"/>
<path d="M52.7964 1.11621H50.6431V3.26954H52.7964V1.11621Z" fill="black"/>
<path d="M52.7964 14.0371H50.6431V16.1904H52.7964V14.0371Z" fill="black"/>
<path d="M54.9497 1.11621H52.7964V3.26954H54.9497V1.11621Z" fill="black"/>
<path d="M54.9497 14.0371H52.7964V16.1904H54.9497V14.0371Z" fill="black"/>
<path d="M57.103 1.11621H54.9497V3.26954H57.103V1.11621Z" fill="black"/>
<path d="M57.103 14.0371H54.9497V16.1904H57.103V14.0371Z" fill="black"/>
<path d="M59.2564 1.11621H57.103V3.26954H59.2564V1.11621Z" fill="black"/>
<path d="M59.2564 14.0371H57.103V16.1904H59.2564V14.0371Z" fill="black"/>
<path d="M61.4097 1.11621H59.2563V3.26954H61.4097V1.11621Z" fill="black"/>
<path d="M61.4097 14.0371H59.2563V16.1904H61.4097V14.0371Z" fill="black"/>
<path d="M63.563 1.11621H61.4097V3.26954H63.563V1.11621Z" fill="black"/>
<path d="M63.563 3.27051H61.4097V5.42384H63.563V3.27051Z" fill="black"/>
<path d="M63.563 5.42188H61.4097V7.57521H63.563V5.42188Z" fill="black"/>
<path d="M63.563 7.57715H61.4097V9.73048H63.563V7.57715Z" fill="black"/>
<path d="M63.563 9.72949H61.4097V11.8828H63.563V9.72949Z" fill="black"/>
<path d="M63.563 11.8828H61.4097V14.0361H63.563V11.8828Z" fill="black"/>
<path d="M63.563 14.0371H61.4097V16.1904H63.563V14.0371Z" fill="black"/>
<path d="M54.9502 5.42383H52.7969V7.57716H54.9502V5.42383Z" fill="black"/>
<path d="M54.9502 7.57812H52.7969V9.73146H54.9502V7.57812Z" fill="black"/>
<path d="M54.9502 9.72949H52.7969V11.8828H54.9502V9.72949Z" fill="black"/>
<path d="M57.103 5.42383H54.9497V7.57716H57.103V5.42383Z" fill="black"/>
<path d="M57.103 7.57812H54.9497V9.73146H57.103V7.57812Z" fill="black"/>
<path d="M57.103 9.72949H54.9497V11.8828H57.103V9.72949Z" fill="black"/>
<path d="M59.2568 5.42383H57.1035V7.57716H59.2568V5.42383Z" fill="black"/>
<path d="M59.2568 7.57812H57.1035V9.73146H59.2568V7.57812Z" fill="black"/>
<path d="M59.2568 9.72949H57.1035V11.8828H59.2568V9.72949Z" fill="black"/>
<path d="M3.27003 48.4893H1.1167V50.6426H3.27003V48.4893Z" fill="black"/>
<path d="M3.27003 50.6436H1.1167V52.7969H3.27003V50.6436Z" fill="black"/>
<path d="M3.27003 52.7949H1.1167V54.9483H3.27003V52.7949Z" fill="black"/>
<path d="M3.27003 54.9492H1.1167V57.1026H3.27003V54.9492Z" fill="black"/>
<path d="M3.27003 57.1025H1.1167V59.2559H3.27003V57.1025Z" fill="black"/>
<path d="M3.27003 59.2559H1.1167V61.4092H3.27003V59.2559Z" fill="black"/>
<path d="M3.27003 61.4092H1.1167V63.5625H3.27003V61.4092Z" fill="black"/>
<path d="M5.42286 48.4893H3.26953V50.6426H5.42286V48.4893Z" fill="black"/>
<path d="M5.42286 61.4092H3.26953V63.5625H5.42286V61.4092Z" fill="black"/>
<path d="M7.57667 48.4893H5.42334V50.6426H7.57667V48.4893Z" fill="black"/>
<path d="M7.57667 61.4092H5.42334V63.5625H7.57667V61.4092Z" fill="black"/>
<path d="M9.72999 48.4893H7.57666V50.6426H9.72999V48.4893Z" fill="black"/>
<path d="M9.72999 61.4092H7.57666V63.5625H9.72999V61.4092Z" fill="black"/>
<path d="M11.8833 48.4893H9.72998V50.6426H11.8833V48.4893Z" fill="black"/>
<path d="M11.8833 61.4092H9.72998V63.5625H11.8833V61.4092Z" fill="black"/>
<path d="M14.0366 48.4893H11.8833V50.6426H14.0366V48.4893Z" fill="black"/>
<path d="M14.0366 61.4092H11.8833V63.5625H14.0366V61.4092Z" fill="black"/>
<path d="M16.1904 48.4893H14.0371V50.6426H16.1904V48.4893Z" fill="black"/>
<path d="M16.1904 50.6436H14.0371V52.7969H16.1904V50.6436Z" fill="black"/>
<path d="M16.1904 52.7949H14.0371V54.9483H16.1904V52.7949Z" fill="black"/>
<path d="M16.1904 54.9492H14.0371V57.1026H16.1904V54.9492Z" fill="black"/>
<path d="M16.1904 57.1025H14.0371V59.2559H16.1904V57.1025Z" fill="black"/>
<path d="M16.1904 59.2559H14.0371V61.4092H16.1904V59.2559Z" fill="black"/>
<path d="M16.1904 61.4092H14.0371V63.5625H16.1904V61.4092Z" fill="black"/>
<path d="M7.5757 52.7959H5.42236V54.9492H7.5757V52.7959Z" fill="black"/>
<path d="M7.5757 54.9492H5.42236V57.1026H7.5757V54.9492Z" fill="black"/>
<path d="M7.5757 57.1016H5.42236V59.2549H7.5757V57.1016Z" fill="black"/>
<path d="M9.72951 52.7959H7.57617V54.9492H9.72951V52.7959Z" fill="black"/>
<path d="M9.72951 54.9492H7.57617V57.1026H9.72951V54.9492Z" fill="black"/>
<path d="M9.72951 57.1016H7.57617V59.2549H9.72951V57.1016Z" fill="black"/>
<path d="M11.8833 52.7959H9.72998V54.9492H11.8833V52.7959Z" fill="black"/>
<path d="M11.8833 54.9492H9.72998V57.1026H11.8833V54.9492Z" fill="black"/>
<path d="M11.8833 57.1016H9.72998V59.2549H11.8833V57.1016Z" fill="black"/>
</svg>
